<?xml version="1.0" encoding="UTF-8"?>
<svg id="_圖層_2" data-name="圖層 2" xmlns="http://www.w3.org/2000/svg" viewBox="0 0 103.63 147.84">
  <g id="_圖層_3" data-name="圖層 3">
    <path d="M96.42,29.87c-3.6-6.1-8.43-11.48-14.2-15.68,.89-.74,2.01-1.48,3.29-2.31,.98-.64,4.15-2.96,3.41-4.86-.18-.46-.53-.76-.88-1.03-4.3-3.34-9.42-4.62-14.37-5.48-3.98-.69-8.06-.72-12.01,.22-2.5,.59-4.98,1.55-7.25,3.01-.17,.11-1.15,.99-1.81,1.48C32.6,5.71,10.98,17.1,2.72,41.07,.89,46.39,.08,52.46,0,58.44c0-.49,2.83-2.29,3.24-2.58,1.15-.82,2.36-1.47,3.54-2.22,2.36-1.49,4.79-2.85,7.28-4.03,8.43-4,17.62-5.9,26.93-4.76,3.19,.39,6.37,1.24,9.23,2.74,3.73,1.96,6.94,6.66,5.27,10.96-.86,2.22-2.76,3.76-4.54,5.23-2.42,1.99-5.09,3.55-7.77,5.14-.22,.13-.45,.24-.7,.32,.43,.31,.96,.52,1.42,.78,3.71,2.04,7.53,4,11.55,4.81,4.36,.88,7.39-.36,11.3-2.69,5.61-3.34,11.95-4.66,18.12-3.89,2.77,.35,5.75,.94,8.26,2.5,2.36,1.48,4.38,3.77,5.84,5.75-.15-.21,.63-1.63,.72-1.84,2.55-5.83,3.75-11.34,3.91-17.69,.24-9.56-2.38-18.98-7.19-27.12ZM21.59,41.56c-2.15,0-3.89-2.06-3.89-4.6s1.74-4.6,3.89-4.6,3.89,2.06,3.89,4.6-1.74,4.6-3.89,4.6Z" style="fill: #64addb;"/>
    <path d="M57.67,107.71c-8.47,5.01-18.34,7.9-26.68,4.92,.7,.96,1.41,1.92,2.14,2.85,5.29,6.74,11.81,12.79,19.17,13,6.22,.18,11.66-3.66,15.8-7.95,2.14-2.22,4.04-4.67,5.76-7.22,.72-1.06,4.56-8.14,4.95-8.05-7.54-1.75-14.68-1.57-21.13,2.45Z" style="fill: #416b80;"/>
    <circle cx="53.19" cy="141.74" r="6.09" style="fill: #416b80;"/>
    <path d="M65.92,78.35c-1.96,.78-3.94,1.46-6.03,1.64-5.01,.44-9.77-1.98-14.43-3.92-2.58-1.08-5.23-2-7.94-2.72s-5.45-1.22-8.23-1.42c-2.95-.22-5.92-.05-8.86,.24-1.28,.13-2.55,.28-3.82,.48-.6,.09-1.21,.18-1.8,.3-.55,.12-1.09,.35-1.67,.35-2.18,.49-4.33,1.08-6.45,1.77-1.06,.34-2.11,.7-3.15,1.09-.02,0-.04,.02-.07,.03,0,0,5.73,33.84,62.43,2.16Z" style="fill: #bee2ef;"/>
    <path d="M96.6,88.54c1.98-3.03,2.59-6.96,.06-9.91-2.71-3.17-7.99-4.17-11.95-4.49-4.77-.39-9.65,.33-14.13,1.99-1.57,.58-3.11,1.27-4.67,1.9-15.31,5.99-36.25,13.51-52.64,6.87-4.49-1.82-7.3-4.72-9.78-8.69,.69,1.1,.88,2.92,1.38,4.16,.59,1.49,1.28,2.94,2.03,4.35,2.33,4.36,5.23,8.37,8.27,12.25,3.54,4.53,7.8,9.13,12.94,11.84,3.76,1.98,9.12,1.66,13.24,1.23,3.67-.39,7.21-1.47,10.63-2.83,5.06-2.02,9.99-5.09,15.43-5.94,1.68-.26,3.26-.13,4.94-.04,2.85,.15,5.71,.82,8.53,1.32,.08,.02,.29-.2,.35-.25,.2-.17,.37-.37,.55-.56,.38-.39,.77-.77,1.16-1.15,.91-.9,1.81-1.83,2.84-2.59s2.14-1.52,3.22-2.27c.73-.51,1.46-1.03,2.17-1.57,1.84-1.39,3.96-3.36,5.44-5.62Z" style="fill: #64addb;"/>
  </g>
</svg>